<?xml version="1.0" encoding="utf-8"?>
<!-- Generator: Adobe Illustrator 19.0.0, SVG Export Plug-In . SVG Version: 6.00 Build 0)  -->
<svg version="1.1" xmlns="http://www.w3.org/2000/svg" xmlns:xlink="http://www.w3.org/1999/xlink" x="0px" y="0px"
	 viewBox="0 0 1327 307" style="enable-background:new 0 0 1327 307;" xml:space="preserve">
<style type="text/css">
	.st0{fill:#FFFFFF;stroke:#25DB39;stroke-width:0.7267;stroke-linecap:round;stroke-linejoin:round;stroke-miterlimit:10;}
	.st1{fill:none;stroke:#25DB39;stroke-width:0.7267;stroke-linecap:round;stroke-linejoin:round;stroke-miterlimit:10;}
	.st2{fill:none;stroke:#25DB39;stroke-miterlimit:10;}
	.st3{fill:#FFFFFF;stroke:#25DB39;stroke-miterlimit:10;}
	.st4{fill:#5D5D5D;stroke:#25DB39;stroke-miterlimit:10;}
	.st5{fill:none;stroke:#25DB39;stroke-width:0.7267;stroke-miterlimit:10;}
</style>
<g id="BACKGROUND">
</g>
<g id="OBJECTS">
	<g>
		<g>
			<path class="st0" d="M612.8,76.8c0,6.3-5.1,11.4-11.4,11.4h-82.4c-6.3,0-11.4-5.1-11.4-11.4l0,0c0-6.3,5.1-11.4,11.4-11.4h82.4
				C607.7,65.4,612.8,70.5,612.8,76.8L612.8,76.8z"/>
			<path class="st0" d="M748.5,107.4c0,3.6-2.9,6.5-6.5,6.5h-60.4c-3.6,0-6.5-2.9-6.5-6.5l0,0c0-3.6,2.9-6.5,6.5-6.5H742
				C745.6,100.9,748.5,103.8,748.5,107.4L748.5,107.4z"/>
			<path class="st0" d="M372.4,15.2c0,5.3-4.3,9.7-9.7,9.7h-64.2c-5.3,0-9.7-4.3-9.7-9.7l0,0c0-5.3,4.3-9.7,9.7-9.7h64.2
				C368,5.5,372.4,9.8,372.4,15.2L372.4,15.2z"/>
			<path class="st0" d="M214.2,138.7c0,4.2-3.4,7.6-7.6,7.6h-81.3c-4.2,0-7.6-3.4-7.6-7.6l0,0c0-4.2,3.4-7.6,7.6-7.6h81.3
				C210.8,131.2,214.2,134.6,214.2,138.7L214.2,138.7z"/>
			<path class="st0" d="M1204.1,138.7c0,4.2-3.4,7.6-7.6,7.6h-81.3c-4.2,0-7.6-3.4-7.6-7.6l0,0c0-4.2,3.4-7.6,7.6-7.6h81.3
				C1200.7,131.2,1204.1,134.6,1204.1,138.7L1204.1,138.7z"/>
			<circle class="st0" cx="384.7" cy="100.9" r="45.5"/>
			<path class="st0" d="M493.9,100.9c0,6.3-5.1,11.4-11.4,11.4h-82.4c-6.3,0-11.4-5.1-11.4-11.4l0,0c0-6.3,5.1-11.4,11.4-11.4h82.4
				C488.8,89.5,493.9,94.6,493.9,100.9L493.9,100.9z"/>
			<path class="st0" d="M447.2,118.8c0,3.6-2.9,6.5-6.5,6.5h-60.4c-3.6,0-6.5-2.9-6.5-6.5l0,0c0-3.6,2.9-6.5,6.5-6.5h60.4
				C444.3,112.3,447.2,115.2,447.2,118.8L447.2,118.8z"/>
			<path class="st0" d="M979.5,83.4c0-6.3,5.1-11.4,11.4-11.4h82.4c6.3,0,11.4,5.1,11.4,11.4l0,0c0,6.3-5.1,11.4-11.4,11.4h-82.4
				C984.6,94.8,979.5,89.7,979.5,83.4L979.5,83.4z"/>
			<path class="st0" d="M1026.2,65.4c0-3.6,2.9-6.5,6.5-6.5h60.4c3.6,0,6.5,2.9,6.5,6.5l0,0c0,3.6-2.9,6.5-6.5,6.5h-60.4
				C1029.1,71.9,1026.2,69,1026.2,65.4L1026.2,65.4z"/>
			<path class="st0" d="M909.3,139.6c0,3.8-3.1,6.8-6.8,6.8H879c-3.8,0-6.8-3.1-6.8-6.8l0,0c0-3.8,3.1-6.8,6.8-6.8h23.5
				C906.3,132.7,909.3,135.8,909.3,139.6L909.3,139.6z"/>
		</g>
		<g>
			<g>
				<g>
					<path class="st0" d="M517.2,267.8c0,0-66.5-15.7-197.7-15.7c-134,0-199.6,21.9-199.6,21.9v3.4c0,0,65.6-21.9,199.6-21.9
						c131.2,0,197.7,15.7,197.7,15.7V267.8z"/>
					<g>
						<polygon class="st0" points="267.8,305.1 242.1,305.1 247.1,211.9 262.9,211.9 						"/>
						<rect x="240.5" y="299.7" class="st0" width="29.3" height="5.5"/>
						<rect x="242.1" y="296.9" class="st0" width="25.7" height="2.7"/>
						<rect x="243.1" y="205.2" class="st0" width="24" height="4.5"/>
						<rect x="244.7" y="209.7" class="st0" width="21" height="2.2"/>
						<rect x="242.1" y="274.7" class="st0" width="25.7" height="2.7"/>
						<rect x="242.1" y="248.5" class="st0" width="25.7" height="2.7"/>
						<path class="st1" d="M259.7,217.4c0,0.8-0.7,1.5-1.5,1.5h-3.2c-0.8,0-1.5-0.7-1.5-1.5l0,0c0-0.8,0.7-1.5,1.5-1.5h3.2
							C259,215.9,259.7,216.6,259.7,217.4L259.7,217.4z"/>
						<path class="st1" d="M261.5,239.7c0,0.8-0.7,1.5-1.5,1.5h-3.2c-0.8,0-1.5-0.7-1.5-1.5l0,0c0-0.8,0.7-1.5,1.5-1.5h3.2
							C260.8,238.1,261.5,238.8,261.5,239.7L261.5,239.7z"/>
						<path class="st1" d="M263.6,236.6c0,0.8-0.7,1.5-1.5,1.5h-3.2c-0.8,0-1.5-0.7-1.5-1.5l0,0c0-0.8,0.7-1.5,1.5-1.5h3.2
							C263,235.1,263.6,235.8,263.6,236.6L263.6,236.6z"/>
						<path class="st1" d="M255.4,265.2c0,0.8-0.7,1.5-1.5,1.5h-3.2c-0.8,0-1.5-0.7-1.5-1.5l0,0c0-0.8,0.7-1.5,1.5-1.5h3.2
							C254.8,263.7,255.4,264.4,255.4,265.2L255.4,265.2z"/>
						<path class="st1" d="M253.5,283.2c0,0.8-0.7,1.5-1.5,1.5h-3.2c-0.8,0-1.5-0.7-1.5-1.5l0,0c0-0.8,0.7-1.5,1.5-1.5h3.2
							C252.9,281.7,253.5,282.3,253.5,283.2L253.5,283.2z"/>
						<path class="st1" d="M262.3,292c0,0.8-0.7,1.5-1.5,1.5h-3.2c-0.8,0-1.5-0.7-1.5-1.5l0,0c0-0.8,0.7-1.5,1.5-1.5h3.2
							C261.7,290.5,262.3,291.2,262.3,292L262.3,292z"/>
						<path class="st1" d="M257.6,262.2c0,0.8-0.7,1.5-1.5,1.5h-3.2c-0.8,0-1.5-0.7-1.5-1.5l0,0c0-0.8,0.7-1.5,1.5-1.5h3.2
							C256.9,260.6,257.6,261.3,257.6,262.2L257.6,262.2z"/>
					</g>
					<g>
						<polygon class="st0" points="359.9,305.1 385.6,305.1 380.7,211.9 364.9,211.9 						"/>
						<rect x="358" y="299.7" class="st0" width="29.3" height="5.5"/>
						<rect x="359.9" y="296.9" class="st0" width="25.7" height="2.7"/>
						<rect x="360.7" y="205.2" class="st0" width="24" height="4.5"/>
						<rect x="362" y="209.7" class="st0" width="21" height="2.2"/>
						<rect x="359.9" y="274.7" class="st0" width="25.7" height="2.7"/>
						<rect x="359.9" y="248.5" class="st0" width="25.7" height="2.7"/>
						<path class="st1" d="M368.1,217.4c0,0.8,0.7,1.5,1.5,1.5h3.2c0.8,0,1.5-0.7,1.5-1.5l0,0c0-0.8-0.7-1.5-1.5-1.5h-3.2
							C368.8,215.9,368.1,216.6,368.1,217.4L368.1,217.4z"/>
						<path class="st1" d="M366.2,239.7c0,0.8,0.7,1.5,1.5,1.5h3.2c0.8,0,1.5-0.7,1.5-1.5l0,0c0-0.8-0.7-1.5-1.5-1.5h-3.2
							C366.9,238.1,366.2,238.8,366.2,239.7L366.2,239.7z"/>
						<path class="st1" d="M364.1,236.6c0,0.8,0.7,1.5,1.5,1.5h3.2c0.8,0,1.5-0.7,1.5-1.5l0,0c0-0.8-0.7-1.5-1.5-1.5h-3.2
							C364.8,235.1,364.1,235.8,364.1,236.6L364.1,236.6z"/>
						<path class="st1" d="M372.3,265.2c0,0.8,0.7,1.5,1.5,1.5h3.2c0.8,0,1.5-0.7,1.5-1.5l0,0c0-0.8-0.7-1.5-1.5-1.5h-3.2
							C373,263.7,372.3,264.4,372.3,265.2L372.3,265.2z"/>
						<path class="st1" d="M374.2,283.2c0,0.8,0.7,1.5,1.5,1.5h3.2c0.8,0,1.5-0.7,1.5-1.5l0,0c0-0.8-0.7-1.5-1.5-1.5h-3.2
							C374.9,281.7,374.2,282.3,374.2,283.2L374.2,283.2z"/>
						<path class="st1" d="M365.4,292c0,0.8,0.7,1.5,1.5,1.5h3.2c0.8,0,1.5-0.7,1.5-1.5l0,0c0-0.8-0.7-1.5-1.5-1.5h-3.2
							C366.1,290.5,365.4,291.2,365.4,292L365.4,292z"/>
						<path class="st1" d="M370.2,262.2c0,0.8,0.7,1.5,1.5,1.5h3.2c0.8,0,1.5-0.7,1.5-1.5l0,0c0-0.8-0.7-1.5-1.5-1.5h-3.2
							C370.8,260.6,370.2,261.3,370.2,262.2L370.2,262.2z"/>
					</g>
					<path class="st1" d="M262.9,211.9c0,0,23.4,31.6,48.1,31.6c24.7,0,54.4-31.6,54.4-31.6"/>
					<path class="st1" d="M382.4,211.9c0,0,40.5,45.9,65.2,45.9"/>
					<path class="st1" d="M247.2,211.9c0,0-39.2,45.9-65.2,49.2"/>
				</g>
				<g>
					<path class="st0" d="M422.2,219.7c0-13.8,11.2-25,25-25c13.8,0,25,11.2,25,25H422.2z"/>
					<rect x="402.2" y="249.4" class="st0" width="90" height="56.1"/>
					<line class="st1" x1="402.2" y1="255.2" x2="492.2" y2="255.2"/>
					<line class="st1" x1="402.2" y1="274.9" x2="492.2" y2="274.9"/>
					<line class="st1" x1="402.2" y1="284.6" x2="492.2" y2="284.6"/>
					<g>
						<rect x="413.7" y="277.4" class="st2" width="3.5" height="4.5"/>
						<rect x="426.4" y="277.4" class="st2" width="3.5" height="4.5"/>
						<rect x="439.1" y="277.4" class="st2" width="3.5" height="4.5"/>
						<rect x="451.8" y="277.4" class="st2" width="3.5" height="4.5"/>
						<rect x="464.6" y="277.4" class="st2" width="3.5" height="4.5"/>
						<rect x="477.3" y="277.4" class="st2" width="3.5" height="4.5"/>
					</g>
					<g>
						<g>
							<rect x="480.8" y="257.8" class="st2" width="4.5" height="4.7"/>
							<rect x="480.8" y="265.7" class="st2" width="4.5" height="4.7"/>
						</g>
						<g>
							<rect x="409.2" y="257.8" class="st2" width="4.5" height="4.7"/>
							<rect x="409.2" y="265.7" class="st2" width="4.5" height="4.7"/>
						</g>
					</g>
					<g>
						<rect x="420.6" y="255.2" class="st1" width="4.6" height="19.7"/>
						<rect x="432.8" y="255.2" class="st1" width="4.6" height="19.7"/>
						<rect x="444.9" y="255.2" class="st1" width="4.6" height="19.7"/>
						<rect x="457.1" y="255.2" class="st1" width="4.6" height="19.7"/>
						<rect x="469.2" y="255.2" class="st1" width="4.6" height="19.7"/>
					</g>
					<g>
						<path class="st1" d="M411.3,295.4c0-3.9,1.3-7.1,2.9-7.1c1.6,0,2.9,3.2,2.9,7.1v5.9h-5.8V295.4z"/>
						<path class="st1" d="M424.5,295.4c0-3.9,1.3-7.1,2.9-7.1s2.9,3.2,2.9,7.1v5.9h-5.8V295.4z"/>
						<path class="st1" d="M437.7,295.4c0-3.9,1.3-7.1,2.9-7.1c1.6,0,2.9,3.2,2.9,7.1v5.9h-5.8V295.4z"/>
						<path class="st1" d="M450.9,295.4c0-3.9,1.3-7.1,2.9-7.1c1.6,0,2.9,3.2,2.9,7.1v5.9h-5.8V295.4z"/>
						<path class="st1" d="M464.1,295.4c0-3.9,1.3-7.1,2.9-7.1c1.6,0,2.9,3.2,2.9,7.1v5.9h-5.8V295.4z"/>
						<path class="st1" d="M477.4,295.4c0-3.9,1.3-7.1,2.9-7.1c1.6,0,2.9,3.2,2.9,7.1v5.9h-5.8V295.4z"/>
					</g>
					<rect x="420.6" y="235.2" class="st0" width="53.2" height="14.2"/>
					<rect x="417.1" y="231.2" class="st0" width="60.2" height="4"/>
					<rect x="422.4" y="221.3" class="st0" width="49.6" height="9.9"/>
					<rect x="420.3" y="218" class="st0" width="53.8" height="3.3"/>
					<polygon class="st0" points="450.9,179.6 447,167.3 443.5,179.6 443.5,194.6 450.9,194.6 					"/>
				</g>
				<g>
					<path class="st0" d="M342.3,209.1c0,0,8.4-2.9,8.9-2.5c0.5,0.4-0.5,1.7-0.5,1.7s5.8-0.4,5.1,0.8c-0.6,1.3-14,2.1-14,2.1
						L342.3,209.1z"/>
					<polygon class="st0" points="347.1,208 341.4,218.4 331.9,218.4 322.2,221.4 307,246.3 307,207.7 					"/>
					<rect x="303.1" y="275.8" class="st0" width="24.2" height="29.2"/>
					<polygon class="st0" points="336.4,305 327.3,305 327.3,275.8 333.2,277.9 					"/>
					<polygon class="st0" points="294,305 303.1,305 303.1,275.8 297.2,277.9 					"/>
					<polygon class="st0" points="330.4,276.9 327.3,275.8 303.1,275.8 299,276.9 299,272.7 330.4,272.7 					"/>
					<line class="st1" x1="303.3" y1="272.7" x2="303.3" y2="275.8"/>
					<line class="st1" x1="326.6" y1="272.7" x2="326.6" y2="275.8"/>
					<polygon class="st0" points="323.4,237.4 306.5,237.4 303.3,272.7 326.6,272.7 					"/>
					<g>
						<line class="st1" x1="307" y1="272.7" x2="307" y2="237.4"/>
						<line class="st1" x1="310.9" y1="272.7" x2="310.9" y2="237.4"/>
						<line class="st1" x1="314.7" y1="272.7" x2="314.7" y2="237.4"/>
						<line class="st1" x1="318.6" y1="272.7" x2="318.6" y2="237.4"/>
						<line class="st1" x1="322.4" y1="272.7" x2="322.4" y2="237.4"/>
					</g>
					<path class="st0" d="M286,209.1c0,0-8.4-2.9-8.9-2.5c-0.5,0.4,0.5,1.7,0.5,1.7s-5.8-0.4-5.1,0.8c0.6,1.3,14,2.1,14,2.1
						L286,209.1z"/>
					<polygon class="st0" points="282.7,208 288.4,218.4 297.9,218.4 307.5,221.4 321,246.3 326.6,246.3 326.6,219.1 326.6,207.7 
											"/>
					<polygon class="st0" points="325.1,207 304.3,207 304.3,242 325.1,250.3 					"/>
					<path class="st0" d="M326.2,208c0,4.4-8.3,7.9-18.6,7.9c-10.3,0-18.6-3.5-18.6-7.9H326.2z"/>
					<g>
						<polygon class="st0" points="326.6,244.5 319.5,241.6 319.5,207 326.6,207 						"/>
						<polygon class="st0" points="321,242.2 321,248.4 326.6,244.5 						"/>
						<polygon class="st0" points="322,247.7 326.2,251.9 326.2,244.5 						"/>
					</g>
					<g>
						<polygon class="st0" points="302.9,213.9 301.5,232.8 308.4,232.8 308.4,215 						"/>
						<polygon class="st0" points="306.6,214.6 304.3,230.8 308.4,231.5 308.4,215 						"/>
					</g>
					<polygon class="st0" points="318,200.5 310.7,200.5 310.5,207 318.2,207 					"/>
					<path class="st0" d="M330.9,207c0,4.4-8.3,7.9-18.6,7.9c-10.3,0-18.6-3.6-18.6-7.9H330.9z"/>
					<path class="st0" d="M322.4,207c0,2.7-4.5,4.9-10.2,4.9c-5.6,0-10.2-2.2-10.2-4.9H322.4z"/>
					<path class="st0" d="M318,200.5c0,1.7-1.4,3.1-3.1,3.1h-1c-1.7,0-3.1-1.4-3.1-3.1v-3.7c0-1.7,1.4-3.1,3.1-3.1h1
						c1.7,0,3.1,1.4,3.1,3.1V200.5z"/>
				</g>
			</g>
			<g>
				<g>
					<g>
						<g>
							<path class="st0" d="M578.9,246.5c15.6,3.4,35.7,7,48.3,11.8l6.6,46.9h-84.2L578.9,246.5z"/>
						</g>
						<g>
							<path class="st0" d="M565.7,264.8c22.5,1.7,46.8,4,63.7,8.8l4.4,31.5h-88.2L565.7,264.8z"/>
						</g>
						<g>
							<path class="st0" d="M550.8,285.4c30.4,0.2,59.6,1.3,81,5.5l2,14.2H541L550.8,285.4z"/>
						</g>
					</g>
					<g>
						<polygon class="st0" points="585,289.3 536.3,288.8 536.3,254.8 573,254.8 572.9,264.1 						"/>
						<polygon class="st0" points="596,305.2 552.5,305.2 552.5,285.9 588.6,285.9 						"/>
						<rect x="570.1" y="277.1" class="st0" width="18.4" height="8.8"/>
						<line class="st1" x1="570.1" y1="281.5" x2="588.6" y2="281.5"/>
						<path class="st1" d="M574.3,305.2V295c0-3.1,2.5-5.6,5.6-5.6l0,0c3.1,0,5.6,2.5,5.6,5.6v10.2H574.3z"/>
						<path class="st1" d="M560,275v-5.6c0-3.1,2.5-5.6,5.6-5.6l0,0c3.1,0,5.6,2.5,5.6,5.6v5.6H560z"/>
						<path class="st1" d="M545.7,275v-5.6c0-3.1,2.5-5.6,5.6-5.6l0,0c3.1,0,5.6,2.5,5.6,5.6v5.6H545.7z"/>
					</g>
					<g>
						<g>
							<path class="st0" d="M556.9,305.2l-36.5-92.4c-10.9,6.2-21,12.8-29.9,19.5l-15.4,72.9L556.9,305.2L556.9,305.2z"/>
						</g>
						<g>
							<path class="st0" d="M530,230.9c-15.6,4.3-29.9,9.7-42.5,15.8l-12.4,58.5h84.2L530,230.9z"/>
						</g>
						<g>
							<path class="st0" d="M543.2,254.1c-22.5,2.1-43,6.6-60,12.8l-8.1,38.3h88.2L543.2,254.1z"/>
						</g>
						<g>
							<path class="st0" d="M558.1,280.2c-30.4,0.2-58.2,3.5-79.6,8.9l-3.4,16.1H568L558.1,280.2z"/>
						</g>
						<line class="st1" x1="518.2" y1="214" x2="525.5" y2="232.2"/>
						<line class="st1" x1="527.1" y1="232.2" x2="536.3" y2="254.8"/>
						<line class="st1" x1="540.6" y1="254.8" x2="550.8" y2="280.3"/>
						<line class="st1" x1="555.4" y1="280.3" x2="565.3" y2="305"/>
					</g>
				</g>
				<g>
					<g>
						<path class="st0" d="M636.6,302.3c-1.7-0.2-2.9-1.7-2.7-3.4l0,0c0.2-1.7,1.7-2.9,3.4-2.7l0,0c1.7,0.2,2.9,1.7,2.7,3.4l0,0
							c-0.2,1.6-1.5,2.7-3,2.7l0,0C636.9,302.3,636.7,302.3,636.6,302.3z M657.5,297.9c-0.5-1.6,0.4-3.3,2-3.8l0,0
							c1.6-0.5,3.3,0.4,3.8,2l0,0c0.5,1.6-0.4,3.3-2,3.8l0,0l0,0l0,0c-0.3,0.1-0.6,0.1-0.9,0.1l0,0
							C659.1,300.1,657.9,299.3,657.5,297.9z M613.1,294.4c-1.4-0.9-1.9-2.7-1.1-4.2l0,0c0.9-1.4,2.7-1.9,4.2-1.1l0,0
							c1.4,0.9,1.9,2.7,1.1,4.2l0,0c-0.6,1-1.6,1.5-2.6,1.5l0,0C614.1,294.8,613.6,294.7,613.1,294.4z M678.5,287.4
							c-1.1-1.3-1-3.2,0.3-4.3l0,0c1.3-1.1,3.2-1,4.3,0.2l0,0c1.1,1.3,1,3.2-0.2,4.3l0,0l0,0l0,0c-0.6,0.5-1.3,0.8-2,0.8l0,0
							C680,288.4,679.1,288.1,678.5,287.4z M594.9,277.6L594.9,277.6L594.9,277.6c-1-1.4-0.6-3.3,0.7-4.3l0,0c1.4-1,3.3-0.6,4.3,0.7
							h0c1,1.4,0.6,3.3-0.7,4.2l0,0c-0.5,0.4-1.2,0.6-1.8,0.6l0,0C596.4,278.9,595.5,278.4,594.9,277.6z M693.5,269.2
							c-1.5-0.7-2.2-2.5-1.5-4l0,0c0.7-1.5,2.5-2.2,4-1.5l0,0c1.5,0.7,2.2,2.5,1.5,4l0,0c-0.5,1.1-1.6,1.8-2.8,1.8l0,0
							C694.3,269.4,693.9,269.4,693.5,269.2z M585.2,254.8c-0.3-1.7,0.8-3.2,2.4-3.6l0,0c1.6-0.3,3.2,0.8,3.6,2.4l0,0
							c0.3,1.7-0.8,3.2-2.4,3.6l0,0c-0.2,0-0.4,0.1-0.6,0.1l0,0C586.7,257.3,585.4,256.3,585.2,254.8z M696.6,243.4c0-1.7,1.4-3,3-3
							l0,0c1.7,0,3,1.4,3,3l0,0l0,0l0,0c0,1.7-1.4,3-3,3l0,0C697.9,246.4,696.6,245.1,696.6,243.4z M587.9,233.7
							c-1.6-0.4-2.7-2-2.3-3.6l0,0l0,0l0,0c0.4-1.6,2-2.7,3.7-2.3l0,0c1.6,0.4,2.7,2,2.3,3.6l0,0c-0.3,1.4-1.6,2.4-3,2.4l0,0
							C588.3,233.8,588.1,233.7,587.9,233.7z M692.6,223.3L692.6,223.3c-0.6-1.6,0.1-3.3,1.7-4l0,0c1.6-0.6,3.3,0.1,4,1.7l0,0
							c0.6,1.6-0.1,3.3-1.7,4l0,0c-0.4,0.2-0.8,0.2-1.1,0.2l0,0C694.3,225.2,693.1,224.5,692.6,223.3z M596.7,211.8
							c-1.3-1-1.6-2.9-0.6-4.3l0,0c1-1.3,2.9-1.6,4.3-0.6l0,0c1.3,1,1.6,2.9,0.6,4.3l0,0c-0.6,0.8-1.5,1.2-2.4,1.2l0,0
							C597.9,212.5,597.2,212.3,596.7,211.8z M680.1,204.9c-1.2-1.2-1.3-3.1-0.1-4.3l0,0c1.2-1.2,3.1-1.3,4.3-0.1l0,0
							c1.2,1.2,1.3,3.1,0.1,4.3l0,0c-0.6,0.6-1.4,0.9-2.2,0.9l0,0C681.5,205.8,680.7,205.5,680.1,204.9z M613.7,195.5
							c-0.8-1.5-0.3-3.3,1.2-4.1l0,0l0,0l0,0c1.5-0.8,3.3-0.3,4.1,1.2l0,0c0.8,1.5,0.3,3.3-1.2,4.1l0,0c-0.5,0.3-1,0.4-1.5,0.4l0,0
							C615.3,197.1,614.2,196.5,613.7,195.5z M661.2,193.3c-1.6-0.6-2.4-2.3-1.9-3.9l0,0c0.6-1.6,2.3-2.4,3.9-1.8l0,0
							c1.6,0.6,2.4,2.3,1.8,3.9l0,0c-0.4,1.2-1.6,2-2.9,2l0,0C661.9,193.4,661.5,193.4,661.2,193.3z M635.8,187.6
							c-0.1-1.7,1.1-3.1,2.8-3.3l0,0c1.7-0.1,3.1,1.1,3.3,2.8l0,0c0.1,1.7-1.1,3.1-2.8,3.3l0,0c-0.1,0-0.2,0-0.2,0l0,0
							C637.3,190.4,636,189.2,635.8,187.6z"/>
					</g>
					<g>
						<line class="st1" x1="643.4" y1="199.2" x2="643.4" y2="287.6"/>
						<line class="st1" x1="652.2" y1="200.1" x2="634.5" y2="286.7"/>
						<line class="st1" x1="660.7" y1="202.7" x2="626.1" y2="284.1"/>
						<line class="st1" x1="668.5" y1="207" x2="618.3" y2="279.8"/>
						<line class="st1" x1="675.2" y1="212.7" x2="611.5" y2="274.1"/>
						<line class="st1" x1="680.7" y1="219.7" x2="606" y2="267.1"/>
						<line class="st1" x1="684.7" y1="227.6" x2="602" y2="259.2"/>
						<line class="st1" x1="687" y1="236.2" x2="599.7" y2="250.6"/>
						<line class="st1" x1="687.6" y1="245" x2="599.2" y2="241.8"/>
						<line class="st1" x1="686.4" y1="253.8" x2="600.4" y2="233"/>
						<line class="st1" x1="683.4" y1="262.2" x2="603.3" y2="224.6"/>
						<line class="st1" x1="678.8" y1="269.8" x2="607.9" y2="217"/>
						<line class="st1" x1="672.9" y1="276.4" x2="613.9" y2="210.4"/>
						<line class="st1" x1="665.7" y1="281.6" x2="621.1" y2="205.2"/>
						<line class="st1" x1="657.6" y1="285.3" x2="629.1" y2="201.5"/>
						<line class="st1" x1="649" y1="287.3" x2="637.8" y2="199.5"/>
						<circle class="st3" cx="643.4" cy="243.4" r="4.9"/>
					</g>
					<g>
						<path class="st1" d="M647.3,199.3l0.7-8.1c-3.4-0.3-6.9-0.3-10.5,0.1l0.9,8.1C641.4,199.1,644.4,199.1,647.3,199.3z"/>
						<path class="st1" d="M638.4,199.4L638.4,199.4l-0.9-8.1l0,0c-2.2,0.3-4.4,0.7-6.5,1.2l1.9,7.9
							C634.7,200,636.5,199.7,638.4,199.4z"/>
						<path class="st1" d="M632.9,200.4l-1.9-7.9c-3.5,0.8-6.8,2-9.9,3.5l3.5,7.4C627.2,202.1,630,201.1,632.9,200.4z"/>
						<path class="st1" d="M605.1,221.1l-7-4.1c-1.8,3-3.2,6.2-4.4,9.6l7.7,2.6C602.4,226.4,603.7,223.7,605.1,221.1z"/>
						<path class="st1" d="M656,201l2.3-7.8c-3.3-1-6.8-1.7-10.3-2l-0.7,8.1C650.3,199.6,653.2,200.2,656,201z"/>
						<path class="st1" d="M624.5,203.4l-3.5-7.4c-3.2,1.5-6.2,3.3-9,5.4l4.9,6.5C619.3,206.2,621.8,204.7,624.5,203.4z"/>
						<path class="st1" d="M616.9,207.9l-4.9-6.5c-2.8,2.1-5.4,4.5-7.7,7.1l6.1,5.4C612.3,211.7,614.5,209.7,616.9,207.9z"/>
						<path class="st1" d="M685.9,231.4l7.8-2.2c-1-3.4-2.3-6.7-3.9-9.8l-7.2,3.7C684,225.7,685.1,228.5,685.9,231.4z"/>
						<path class="st1" d="M664.2,204.4l3.8-7.2c-3.1-1.6-6.3-3-9.7-4L656,201C658.9,201.9,661.6,203,664.2,204.4z"/>
						<path class="st1" d="M601.5,229.2l-7.7-2.6c-1.1,3.3-1.9,6.7-2.4,10.2l8.1,1C599.9,234.9,600.5,232,601.5,229.2z"/>
						<path class="st1" d="M687.2,249l8.1,1c0.4-3.4,0.5-6.9,0.3-10.5l-8.1,0.6C687.7,243.1,687.6,246.1,687.2,249z"/>
						<path class="st1" d="M687.3,238.5c0.1,0.5,0.1,1.1,0.1,1.6l8.1-0.6c0-0.6-0.1-1.3-0.2-1.9c-0.3-2.9-0.9-5.7-1.7-8.4l-7.8,2.2
							C686.6,233.6,687,236,687.3,238.5z"/>
						<path class="st1" d="M671.6,209.3l5.2-6.3c-2.7-2.2-5.6-4.2-8.7-5.9l-3.8,7.2C666.8,205.8,669.3,207.5,671.6,209.3z"/>
						<path class="st1" d="M682.7,223.1l7.2-3.7c-1.6-3.1-3.6-6.1-5.7-8.8l-6.3,5.1C679.7,218,681.3,220.4,682.7,223.1z"/>
						<path class="st1" d="M677.8,215.7l6.3-5.1c-2.2-2.7-4.7-5.2-7.4-7.5l-5.2,6.3C673.9,211.2,675.9,213.3,677.8,215.7z"/>
						<path class="st1" d="M610.4,213.9l-6.1-5.4c-2.3,2.6-4.4,5.5-6.2,8.5l7,4.1C606.6,218.6,608.4,216.2,610.4,213.9z"/>
						<path class="st1" d="M653.8,286.4l1.9,7.9c3.5-0.8,6.8-2,9.9-3.5l-3.5-7.4C659.5,284.7,656.7,285.7,653.8,286.4z"/>
						<path class="st1" d="M662.2,283.4l3.5,7.4c3.2-1.5,6.2-3.3,9-5.4l-4.9-6.5C667.4,280.6,664.9,282.2,662.2,283.4z"/>
						<path class="st1" d="M648.3,287.4l0.9,8.1c2.2-0.3,4.4-0.7,6.5-1.2l-1.9-7.9C652,286.8,650.2,287.1,648.3,287.4z"/>
						<path class="st1" d="M669.8,278.9l4.9,6.5c2.8-2.1,5.4-4.5,7.7-7.1l-6.1-5.4C674.4,275.1,672.2,277.1,669.8,278.9z"/>
						<path class="st1" d="M687.2,249c-0.4,3-1,5.9-2,8.6l7.7,2.6c1.1-3.3,1.9-6.7,2.4-10.2L687.2,249z"/>
						<path class="st1" d="M648.3,287.4c-3,0.3-6,0.4-8.9,0.1l-0.7,8.1c3.4,0.3,6.9,0.3,10.5-0.1l0,0L648.3,287.4L648.3,287.4z"/>
						<path class="st1" d="M676.3,272.9l6.1,5.4c2.3-2.6,4.4-5.5,6.2-8.5l-7-4.1C680.1,268.3,678.3,270.7,676.3,272.9z"/>
						<path class="st1" d="M681.6,265.7l7,4.1c1.8-3,3.2-6.2,4.4-9.6l-7.7-2.6C684.3,260.4,683.1,263.1,681.6,265.7z"/>
						<path class="st1" d="M599.5,237.8l-8.1-1c-0.4,3.4-0.5,6.9-0.3,10.5l8.1-0.6C599,243.7,599.1,240.7,599.5,237.8z"/>
						<path class="st1" d="M600.8,255.5l-7.8,2.2c1,3.4,2.3,6.7,3.9,9.8l7.2-3.7C602.7,261.1,601.6,258.3,600.8,255.5z"/>
						<path class="st1" d="M604.1,263.7l-7.2,3.7c1.6,3.1,3.6,6.1,5.7,8.8l6.3-5.1C607.1,268.8,605.4,266.4,604.1,263.7z"/>
						<path class="st1" d="M599.4,248.3c-0.1-0.5-0.1-1.1-0.1-1.6l-8.1,0.6c0,0.6,0.1,1.3,0.2,1.9c0.3,2.9,0.9,5.7,1.7,8.4l7.8-2.2
							C600.2,253.2,599.7,250.8,599.4,248.3z"/>
						<path class="st1" d="M630.7,285.8l-2.3,7.8c3.3,1,6.8,1.7,10.3,2l0.7-8.1C636.4,287.2,633.5,286.6,630.7,285.8z"/>
						<path class="st1" d="M622.5,282.4l-3.8,7.2c3.1,1.6,6.3,3,9.7,4l2.3-7.8C627.9,284.9,625.1,283.8,622.5,282.4z"/>
						<path class="st1" d="M608.9,271.1l-6.3,5.1c2.2,2.7,4.7,5.2,7.4,7.5l5.2-6.3C612.9,275.6,610.8,273.5,608.9,271.1z"/>
						<path class="st1" d="M615.1,277.5l-5.2,6.3c2.7,2.2,5.6,4.2,8.7,5.9l3.8-7.2C619.9,281,617.4,279.3,615.1,277.5z"/>
					</g>
					<g>
						<polygon class="st0" points="646.2,302.3 642.6,302.3 642.6,295.8 644.7,295.8 						"/>
						<polygon class="st0" points="656,302.3 652.4,302.3 652.4,295 654.6,294.5 						"/>
						<rect x="639.1" y="302.3" class="st0" width="30" height="3"/>
					</g>
				</g>
				<g>
					<polygon class="st0" points="743.5,279.8 690.7,279.8 689.6,305.5 744.6,305.5 					"/>
					<polygon class="st0" points="743.5,279.8 690.7,279.8 702.1,250.2 732,250.2 					"/>
					<rect x="712.5" y="293.8" class="st2" width="9.1" height="11.7"/>
					<path class="st0" d="M702.9,250.2l-1-16.5c0-8.4,6.8-15.2,15.2-15.2l0,0c8.4,0,15.2,6.8,15.2,15.2l-1,16.5H702.9z"/>
					<g>
						<g>
							<line class="st1" x1="717.1" y1="231" x2="695.4" y2="174.3"/>
							<path class="st0" d="M712.4,218.7c1,2.5,3.8,3.8,6.4,2.9l2.2-0.8c2.5-1,3.8-3.8,2.9-6.4l-14.5-38.1c-1-2.5-3.8-3.8-6.4-2.9
								l-6.8,2.6L712.4,218.7z"/>
						</g>
						<g>
							<line class="st1" x1="717.1" y1="231" x2="773.8" y2="209.3"/>
							<path class="st0" d="M729.3,226.3c-2.6,1-3.8,3.8-2.9,6.4l0.8,2.2c1,2.5,3.8,3.8,6.4,2.9l38.1-14.5c2.6-1,3.8-3.8,2.9-6.4
								L772,210L729.3,226.3z"/>
						</g>
						<g>
							<line class="st1" x1="717.1" y1="231" x2="738.7" y2="287.7"/>
							<path class="st0" d="M721.8,243.2c-1-2.5-3.8-3.8-6.4-2.9l-2.2,0.8c-2.5,1-3.8,3.8-2.9,6.4l14.5,38.1c1,2.5,3.8,3.8,6.4,2.9
								l6.8-2.6L721.8,243.2z"/>
						</g>
						<g>
							<line class="st1" x1="717.1" y1="231" x2="660.4" y2="252.6"/>
							<path class="st0" d="M704.8,235.7c2.5-1,3.8-3.8,2.9-6.4l-0.8-2.2c-1-2.6-3.8-3.8-6.4-2.9l-38.1,14.5c-2.5,1-3.8,3.8-2.9,6.4
								l2.6,6.8L704.8,235.7z"/>
						</g>
						<path class="st0" d="M719.2,230.2c0.4,1.2-0.1,2.4-1.3,2.9c-1.2,0.4-2.5-0.1-2.9-1.3c-0.4-1.2,0.1-2.5,1.3-2.9
							C717.4,228.5,718.7,229,719.2,230.2z"/>
					</g>
				</g>
				<g>
					<path class="st0" d="M463,305.2l9.9-24.5h28.8l7.6,24.5c0,0-9.2-15.4-23.1-15.4C472.1,289.9,463,305.2,463,305.2z"/>
					<rect x="464.8" y="271.9" class="st0" width="42.6" height="8.8"/>
					<rect x="466.3" y="280.7" class="st4" width="39.7" height="1.8"/>
					<polygon class="st0" points="502.6,271.9 469.7,271.9 476.1,256.2 496.2,256.2 					"/>
					<polygon class="st1" points="492.4,271.9 479.9,271.9 482.4,259.1 489.8,259.1 					"/>
					<g>
						<polygon class="st0" points="476.8,282.1 466.6,282.1 453.1,305.2 463.2,305.2 						"/>
						<polygon class="st0" points="495.5,282.1 505.6,282.1 519.2,305.2 509.1,305.2 						"/>
					</g>
					<rect x="476.8" y="252.2" class="st5" width="18.7" height="4"/>
					<polygon class="st0" points="496.2,252.2 476.1,252.2 475.5,247.3 496.8,247.3 					"/>
					<g>
						<path class="st0" d="M484,247.1h-7.4c0,0,3.7-25.8,4.5-34.4c0.8-8.6,1.8-34.4,1.8-34.4h3.3L484,247.1z"/>
						<path class="st0" d="M488.3,247.1h7.4c0,0-3.7-25.8-4.5-34.4c-0.8-8.6-1.8-34.4-1.8-34.4h-3.3L488.3,247.1z"/>
					</g>
					<line class="st1" x1="481.6" y1="204.5" x2="490.6" y2="204.5"/>
					<path class="st0" d="M490.2,175.1c0,1.8-1.4,3.2-3.2,3.2h-1.7c-1.8,0-3.2-1.4-3.2-3.2v-5.8c0-1.8,1.4-3.2,3.2-3.2h1.7
						c1.8,0,3.2,1.4,3.2,3.2V175.1z"/>
					<rect x="485.2" y="157.1" class="st0" width="1.9" height="8.9"/>
					<line class="st1" x1="486.1" y1="157.1" x2="486.1" y2="155.1"/>
					<circle class="st4" cx="486.1" cy="154.9" r="1.1"/>
					<line class="st1" x1="481.1" y1="172.2" x2="491.2" y2="172.2"/>
					<line class="st1" x1="481.1" y1="178.3" x2="491.2" y2="178.3"/>
				</g>
			</g>
			<g>
				<g>
					<polygon class="st0" points="1248.3,167.2 1227.1,167.2 1214.8,305.5 1260.6,305.5 					"/>
					<g>
						<path class="st1" d="M1251.3,164.9c0,1.7-1.4,3.1-3.1,3.1h-10.1h-11.1c-1.7,0-3.1-1.4-3.1-3.1"/>
						<path class="st1" d="M1252.3,174.4c0,1.7-1.4,3.1-3.1,3.1H1238h-11.8c-1.7,0-3.1-1.4-3.1-3.1"/>
						<path class="st1" d="M1253.5,186.6c0,1.7-1.4,3.1-3.1,3.1h-12.3H1225c-1.7,0-3.1-1.4-3.1-3.1"/>
						<path class="st1" d="M1255.2,198.6c0,1.7-1.4,3.1-3.1,3.1h-14.1h-14.9c-1.7,0-3.1-1.4-3.1-3.1"/>
						<path class="st1" d="M1257,213.3c0,1.7-1.4,3.1-3.1,3.1h-15.8h-16.7c-1.7,0-3.1-1.4-3.1-3.1"/>
						<path class="st1" d="M1258.8,228.9c0,1.7-1.4,3.1-3.1,3.1h-17.6h-18.4c-1.7,0-3.1-1.4-3.1-3.1"/>
						<path class="st1" d="M1260.5,244.7c0,1.7-1.4,3.1-3.1,3.1h-19.4h-20.2c-1.7,0-3.1-1.4-3.1-3.1"/>
						<path class="st1" d="M1263.2,263.2c0,1.7-1.4,3.1-3.1,3.1h-22.9h-22c-1.7,0-3.1-1.4-3.1-3.1"/>
						<path class="st1" d="M1269.4,284.9c0,1.7-1.4,3.1-3.1,3.1h-28.2h-29c-1.7,0-3.1-1.4-3.1-3.1"/>
					</g>
					<g>
						<rect x="1235.2" y="271.1" class="st3" width="5" height="11"/>
						<rect x="1235.6" y="252.5" class="st3" width="4.3" height="9.4"/>
						<rect x="1235.8" y="236.3" class="st3" width="3.8" height="6.9"/>
						<rect x="1236.1" y="221.1" class="st3" width="3.1" height="5.8"/>
						<rect x="1236.3" y="206.3" class="st3" width="2.8" height="5.1"/>
						<rect x="1236.5" y="192.9" class="st3" width="2.4" height="4.6"/>
						<rect x="1236.4" y="181.4" class="st3" width="2.6" height="3.8"/>
						<rect x="1236.7" y="169.6" class="st3" width="2.1" height="3.8"/>
					</g>
					<path class="st1" d="M1227.3,168c0-5.8,4.7-10.4,10.4-10.4c5.8,0,10.4,4.7,10.4,10.4H1227.3z"/>
					<polygon class="st1" points="1240.8,158 1237.8,157.5 1234.6,158 1234.6,146.3 1240.8,146.3 					"/>
					<line class="st1" x1="1237.7" y1="146.3" x2="1237.7" y2="129.1"/>
					<rect x="1232.5" y="295" class="st1" width="10.4" height="10.5"/>
				</g>
				<g>
					<g>
						<rect x="1030.8" y="232.1" class="st1" width="9.1" height="17.2"/>
						<rect x="1030.8" y="279.4" class="st1" width="9.1" height="20"/>
						<rect x="1030.8" y="257.9" class="st1" width="9.1" height="12.9"/>
						<path class="st1" d="M1043.2,253.6c0,2.4-1.9,4.3-4.3,4.3h-7.6c-2.4,0-4.3-1.9-4.3-4.3l0,0c0-2.4,1.9-4.3,4.3-4.3h7.6
							C1041.3,249.3,1043.2,251.2,1043.2,253.6L1043.2,253.6z"/>
						<path class="st1" d="M1043.2,275.1c0,2.4-1.9,4.3-4.3,4.3h-7.6c-2.4,0-4.3-1.9-4.3-4.3l0,0c0-2.4,1.9-4.3,4.3-4.3h7.6
							C1041.3,270.8,1043.2,272.7,1043.2,275.1L1043.2,275.1z"/>
						<polygon class="st1" points="1035.1,201.7 1030.8,232.1 1039.9,232.1 						"/>
					</g>
					<g>
						<rect x="1175.4" y="232.1" class="st1" width="9.1" height="17.2"/>
						<rect x="1175.4" y="279.4" class="st1" width="9.1" height="20"/>
						<rect x="1175.4" y="257.9" class="st1" width="9.1" height="12.9"/>
						<path class="st1" d="M1187.9,253.6c0,2.4-1.9,4.3-4.3,4.3h-7.6c-2.4,0-4.3-1.9-4.3-4.3l0,0c0-2.4,1.9-4.3,4.3-4.3h7.6
							C1186,249.3,1187.9,251.2,1187.9,253.6L1187.9,253.6z"/>
						<path class="st1" d="M1187.9,275.1c0,2.4-1.9,4.3-4.3,4.3h-7.6c-2.4,0-4.3-1.9-4.3-4.3l0,0c0-2.4,1.9-4.3,4.3-4.3h7.6
							C1186,270.8,1187.9,272.7,1187.9,275.1L1187.9,275.1z"/>
						<polygon class="st1" points="1179.8,201.7 1175.4,232.1 1184.5,232.1 						"/>
					</g>
					<g>
						<rect x="1155.6" y="217.7" class="st1" width="9.1" height="16.2"/>
						<rect x="1155.6" y="262.1" class="st1" width="9.1" height="18.8"/>
						<rect x="1155.6" y="242" class="st1" width="9.1" height="12.1"/>
						<path class="st1" d="M1168.1,237.9c0,2.2-1.9,4-4.3,4h-7.6c-2.4,0-4.3-1.8-4.3-4l0,0c0-2.2,1.9-4,4.3-4h7.6
							C1166.2,233.9,1168.1,235.7,1168.1,237.9L1168.1,237.9z"/>
						<path class="st1" d="M1168.1,258.1c0,2.2-1.9,4-4.3,4h-7.6c-2.4,0-4.3-1.8-4.3-4l0,0c0-2.2,1.9-4,4.3-4h7.6
							C1166.2,254.1,1168.1,255.9,1168.1,258.1L1168.1,258.1z"/>
						<polygon class="st1" points="1160,189.1 1155.6,217.7 1164.7,217.7 						"/>
					</g>
					<g>
						<rect x="1051" y="217.7" class="st1" width="9.1" height="16.2"/>
						<rect x="1051" y="262.1" class="st1" width="9.1" height="18.8"/>
						<rect x="1051" y="242" class="st1" width="9.1" height="12.1"/>
						<path class="st1" d="M1063.5,237.9c0,2.2-1.9,4-4.3,4h-7.6c-2.4,0-4.3-1.8-4.3-4l0,0c0-2.2,1.9-4,4.3-4h7.6
							C1061.5,233.9,1063.5,235.7,1063.5,237.9L1063.5,237.9z"/>
						<path class="st1" d="M1063.5,258.1c0,2.2-1.9,4-4.3,4h-7.6c-2.4,0-4.3-1.8-4.3-4l0,0c0-2.2,1.9-4,4.3-4h7.6
							C1061.5,254.1,1063.5,255.9,1063.5,258.1L1063.5,258.1z"/>
						<polygon class="st1" points="1055.4,189.1 1051,217.7 1060.1,217.7 						"/>
					</g>
					<rect x="1030.8" y="299.4" class="st1" width="153.8" height="6.1"/>
					<g>
						<path class="st1" d="M1051.7,292.1c0-3.1,2.5-5.6,5.6-5.6c3.1,0,5.6,2.5,5.6,5.6"/>
						<path class="st1" d="M1062.9,292.1c0-3.1,2.5-5.6,5.6-5.6c3.1,0,5.6,2.5,5.6,5.6"/>
						<path class="st1" d="M1074.1,292.1c0-3.1,2.5-5.6,5.6-5.6c3.1,0,5.6,2.5,5.6,5.6"/>
						<path class="st1" d="M1085.3,292.1c0-3.1,2.5-5.6,5.6-5.6c3.1,0,5.6,2.5,5.6,5.6"/>
						<path class="st1" d="M1096.5,292.1c0-3.1,2.5-5.6,5.6-5.6c3.1,0,5.6,2.5,5.6,5.6"/>
						<path class="st1" d="M1107.7,292.1c0-3.1,2.5-5.6,5.6-5.6c3.1,0,5.6,2.5,5.6,5.6"/>
						<path class="st1" d="M1118.9,292.1c0-3.1,2.5-5.6,5.6-5.6c3.1,0,5.6,2.5,5.6,5.6"/>
						<path class="st1" d="M1130.1,292.1c0-3.1,2.5-5.6,5.6-5.6c3.1,0,5.6,2.5,5.6,5.6"/>
						<path class="st1" d="M1141.3,292.1c0-3.1,2.5-5.6,5.6-5.6c3.1,0,5.6,2.5,5.6,5.6"/>
						<path class="st1" d="M1152.5,292.1c0-3.1,2.5-5.6,5.6-5.6c3.1,0,5.6,2.5,5.6,5.6"/>
					</g>
					<g>
						<path class="st1" d="M1046.1,297.9c0-3.1,2.5-5.6,5.6-5.6c3.1,0,5.6,2.5,5.6,5.6"/>
						<path class="st1" d="M1057.3,297.9c0-3.1,2.5-5.6,5.6-5.6c3.1,0,5.6,2.5,5.6,5.6"/>
						<path class="st1" d="M1068.5,297.9c0-3.1,2.5-5.6,5.6-5.6s5.6,2.5,5.6,5.6"/>
						<path class="st1" d="M1079.7,297.9c0-3.1,2.5-5.6,5.6-5.6c3.1,0,5.6,2.5,5.6,5.6"/>
						<path class="st1" d="M1090.9,297.9c0-3.1,2.5-5.6,5.6-5.6c3.1,0,5.6,2.5,5.6,5.6"/>
						<path class="st1" d="M1102.1,297.9c0-3.1,2.5-5.6,5.6-5.6c3.1,0,5.6,2.5,5.6,5.6"/>
						<path class="st1" d="M1113.3,297.9c0-3.1,2.5-5.6,5.6-5.6c3.1,0,5.6,2.5,5.6,5.6"/>
						<path class="st1" d="M1124.5,297.9c0-3.1,2.5-5.6,5.6-5.6c3.1,0,5.6,2.5,5.6,5.6"/>
						<path class="st1" d="M1135.7,297.9c0-3.1,2.5-5.6,5.6-5.6c3.1,0,5.6,2.5,5.6,5.6"/>
						<path class="st1" d="M1146.9,297.9c0-3.1,2.5-5.6,5.6-5.6c3.1,0,5.6,2.5,5.6,5.6"/>
						<path class="st1" d="M1158.1,297.9c0-3.1,2.5-5.6,5.6-5.6c3.1,0,5.6,2.5,5.6,5.6"/>
					</g>
					<polyline class="st1" points="1051,292.6 1051,281 1165.6,281 1165.6,292.6 					"/>
					<rect x="1064.9" y="267.4" class="st1" width="11.7" height="13.5"/>
					<rect x="1076.6" y="257.7" class="st1" width="10.6" height="23.2"/>
					<rect x="1138.3" y="267.4" class="st1" width="11.7" height="13.5"/>
					<rect x="1127.7" y="257.7" class="st1" width="10.6" height="23.2"/>
					<rect x="1087.2" y="248" class="st1" width="40.5" height="19.4"/>
					<rect x="1087.2" y="267.4" class="st1" width="40.5" height="13.5"/>
					<path class="st1" d="M1087.2,248c0-7.8,9.1-14.1,20.2-14.1c11.2,0,20.2,6.3,20.2,14.1H1087.2z"/>
					<path class="st1" d="M1094.1,267.4c0-3.9,6-7.1,13.4-7.1c7.4,0,13.4,3.2,13.4,7.1H1094.1z"/>
					<path class="st1" d="M1127.9,257.6c0-2.7,2.3-5,5.1-5c2.8,0,5.1,2.2,5.1,5H1127.9z"/>
					<path class="st1" d="M1138.3,259.8c6.4,0,11.6,3.4,11.6,7.6l-11.6,0V259.8z"/>
					<path class="st1" d="M1086.6,257.6c0-2.7-2.3-5-5.1-5c-2.8,0-5.1,2.2-5.1,5H1086.6z"/>
					<path class="st1" d="M1076.2,259.8c-6.4,0-11.6,3.4-11.6,7.6l11.6,0V259.8z"/>
					<line class="st1" x1="1107.4" y1="233.9" x2="1107.4" y2="216.7"/>
					<rect x="1104" y="231.6" class="st4" width="6.9" height="2.5"/>
					<line class="st1" x1="1087.2" y1="257.7" x2="1127.9" y2="257.7"/>
				</g>
				<g>
					<g>
						<rect x="1162.7" y="262.9" class="st0" width="9" height="42.6"/>
						<path class="st4" d="M1175.1,276.2c0,0.6-0.5,1.1-1.1,1.1h-13.6c-0.6,0-1.1-0.5-1.1-1.1l0,0c0-0.6,0.5-1.1,1.1-1.1h13.6
							C1174.6,275.1,1175.1,275.6,1175.1,276.2L1175.1,276.2z"/>
						<rect x="1211.2" y="262.9" class="st0" width="9" height="42.6"/>
						<path class="st4" d="M1223.7,276.2c0,0.6-0.5,1.1-1.1,1.1h-13.6c-0.6,0-1.1-0.5-1.1-1.1l0,0c0-0.6,0.5-1.1,1.1-1.1h13.6
							C1223.1,275.1,1223.7,275.6,1223.7,276.2L1223.7,276.2z"/>
					</g>
					<path class="st0" d="M1227,259.6c0,1.8-1.5,3.3-3.3,3.3h-64.6c-1.8,0-3.3-1.5-3.3-3.3l0,0c0-1.8,1.5-3.3,3.3-3.3h64.6
						C1225.6,256.4,1227,257.8,1227,259.6L1227,259.6z"/>
					<g>
						<polyline class="st0" points="1171.7,249.3 1171.7,256.4 1162.7,256.4 1162.7,247.7 						"/>
						<rect x="1187" y="249.3" class="st0" width="9" height="7.1"/>
						<polyline class="st0" points="1220.2,247.5 1220.2,256.4 1211.2,256.4 1211.2,249.3 						"/>
					</g>
					<path class="st0" d="M1144.2,239.7c0,0,21.2,4.5,47.3,4.5c26.1,0,47.3-4.5,47.3-4.5v-7.6c0,0-21.2,4.5-47.3,4.5
						c-26.1,0-47.3-4.5-47.3-4.5V239.7z"/>
					<g>
						<path class="st0" d="M1228.5,241.5v5c-8.7,1.3-22,2.8-37,2.8c-15,0-28.4-1.5-37-2.8v-5.2c0,0,16.1,2.9,37,2.9
							C1212.4,244.2,1228.5,241.5,1228.5,241.5z"/>
					</g>
				</g>
				<g>
					<path class="st0" d="M1263.2,132.6c0,0,78.8,52,54.2,172.9h-54.2V132.6z"/>
					<line class="st1" x1="1263.2" y1="105.8" x2="1263.2" y2="305.5"/>
					<g>
						<polyline class="st1" points="1263.2,179.9 1314.3,179.9 1306.8,187.7 						"/>
						<line class="st1" x1="1268.8" y1="187.7" x2="1301.3" y2="187.7"/>
						<line class="st1" x1="1268.8" y1="196.3" x2="1304.8" y2="196.3"/>
						<line class="st1" x1="1268.8" y1="204.9" x2="1308.4" y2="204.9"/>
						<line class="st1" x1="1268.8" y1="213.5" x2="1311.9" y2="213.5"/>
						<line class="st1" x1="1263.2" y1="222.1" x2="1318.4" y2="222.1"/>
						<line class="st1" x1="1268.8" y1="230.7" x2="1313.7" y2="230.7"/>
						<line class="st1" x1="1268.8" y1="239.2" x2="1315.4" y2="239.2"/>
						<line class="st1" x1="1268.8" y1="247.8" x2="1315.4" y2="247.8"/>
						<line class="st1" x1="1268.8" y1="256.4" x2="1315.4" y2="256.4"/>
						<line class="st1" x1="1263.2" y1="265" x2="1322.1" y2="265"/>
						<line class="st1" x1="1268.8" y1="273.6" x2="1315.4" y2="273.6"/>
						<line class="st1" x1="1268.8" y1="282.2" x2="1313.7" y2="282.2"/>
						<line class="st1" x1="1268.8" y1="290.8" x2="1311.9" y2="290.8"/>
						<line class="st1" x1="1268.8" y1="299.4" x2="1310.1" y2="299.4"/>
					</g>
				</g>
			</g>
			<g>
				<g>
					<g>
						<line class="st1" x1="1010" y1="100.1" x2="1010" y2="124.3"/>
						<g>
							<rect x="1006.6" y="124.3" class="st1" width="6.8" height="3.9"/>
							<rect x="1003.3" y="128.3" class="st1" width="13.4" height="3.9"/>
							<rect x="999.3" y="132.2" class="st1" width="21.7" height="3.9"/>
							<rect x="996.8" y="136.2" class="st1" width="26.5" height="3.9"/>
							<rect x="992.6" y="140.1" class="st1" width="34.7" height="3.9"/>
							<rect x="1003.3" y="152" class="st1" width="13.4" height="3.9"/>
							<rect x="999" y="148" class="st1" width="21.7" height="3.9"/>
							<rect x="996.8" y="144.1" class="st1" width="26.5" height="3.9"/>
						</g>
						<g>
							<polygon class="st1" points="1007.2,155.9 1004.6,155.9 1005.7,176.5 1007.2,176.5 							"/>
							<polygon class="st1" points="1013,155.9 1015.6,155.9 1014.5,176.5 1013,176.5 							"/>
						</g>
					</g>
					<rect x="1003.7" y="176.3" class="st1" width="12.7" height="4.4"/>
					<rect x="1004.8" y="180.7" class="st1" width="10.3" height="3.6"/>
					<g>
						<g>
							<polygon class="st0" points="1007,214.9 1002,214.9 1004.8,184.2 1007,184.2 							"/>
							<line class="st1" x1="1004.6" y1="214.9" x2="1005.9" y2="184.2"/>
						</g>
						<g>
							<polygon class="st0" points="1013,214.9 1018,214.9 1015.2,184.2 1013,184.2 							"/>
							<line class="st1" x1="1015.4" y1="214.9" x2="1014.1" y2="184.2"/>
						</g>
					</g>
					<rect x="999.4" y="214.9" class="st0" width="21.3" height="4.2"/>
					<rect x="1000.6" y="219.1" class="st0" width="18.8" height="4.2"/>
					<g>
						<g>
							<polygon class="st0" points="1007,304.3 994.9,304.3 1000.6,223.3 1007,223.3 							"/>
							<line class="st1" x1="1002.5" y1="223.3" x2="998.7" y2="304.3"/>
							<line class="st1" x1="1002.5" y1="304.3" x2="1005.2" y2="223.3"/>
						</g>
						<g>
							<polygon class="st0" points="1013,304.3 1025.1,304.3 1019.4,223.3 1013,223.3 							"/>
							<line class="st1" x1="1017.5" y1="223.3" x2="1021.3" y2="304.3"/>
							<line class="st1" x1="1017.5" y1="304.3" x2="1014.8" y2="223.3"/>
						</g>
					</g>
				</g>
				<g>
					<rect x="880.1" y="286" class="st0" width="163.4" height="19.5"/>
					<g>
						<path class="st0" d="M987.8,273.1c0-25.6-24.6-46.4-55-46.4c-2.6,0-5.2,0.2-7.7,0.5l8.1,58.9h52.4
							C987,281.9,987.8,277.6,987.8,273.1z"/>
					</g>
					<path class="st2" d="M979.9,304.2c0,0.7-0.6,1.3-1.3,1.3l0,0c-0.7,0-1.3-0.6-1.3-1.3v-11.5c0-0.7,0.6-1.3,1.3-1.3l0,0
						c0.7,0,1.3,0.6,1.3,1.3V304.2z"/>
					<path class="st2" d="M985.4,304.2c0,0.7-0.6,1.3-1.3,1.3l0,0c-0.7,0-1.3-0.6-1.3-1.3v-11.5c0-0.7,0.6-1.3,1.3-1.3l0,0
						c0.7,0,1.3,0.6,1.3,1.3V304.2z"/>
					<path class="st2" d="M990.9,304.2c0,0.7-0.6,1.3-1.3,1.3l0,0c-0.7,0-1.3-0.6-1.3-1.3v-11.5c0-0.7,0.6-1.3,1.3-1.3l0,0
						c0.7,0,1.3,0.6,1.3,1.3V304.2z"/>
					<path class="st0" d="M1012,252.4c-10.1,0-19.2,4.5-25.3,11.5c0.7,3,1.1,6,1.1,9.1c0,4.5-0.8,8.8-2.2,12.9h16.6l26.9-28.9
						C1024.1,254.1,1018.3,252.4,1012,252.4z"/>
					<path class="st0" d="M907.3,241.5c-1.4,0-2.8,0.1-4.1,0.2l6.1,44.3h24l-5.3-38.7C921.9,243.6,914.8,241.5,907.3,241.5z"/>
					<path class="st0" d="M902.1,251.3c-5.5,0-10.6,1.4-15.1,3.9l12.9,30.9h9.5l-4.8-34.6C903.7,251.3,902.9,251.3,902.1,251.3z"/>
				</g>
				<g>
					<g>
						<g>
							<rect x="745.5" y="228.2" class="st0" width="5.2" height="77.3"/>
							<line class="st1" x1="745.5" y1="236.7" x2="750.7" y2="236.7"/>
							<line class="st1" x1="745.5" y1="245.9" x2="750.7" y2="245.9"/>
							<line class="st1" x1="745.5" y1="282.1" x2="750.7" y2="282.1"/>
							<line class="st1" x1="745.5" y1="291.3" x2="750.7" y2="291.3"/>
							<polygon class="st0" points="748.1,200.2 745.5,228.2 750.7,228.2 							"/>
						</g>
						<g>
							<rect x="782.8" y="228.2" class="st0" width="5.2" height="77.3"/>
							<line class="st1" x1="782.8" y1="236.7" x2="788" y2="236.7"/>
							<line class="st1" x1="782.8" y1="245.9" x2="788" y2="245.9"/>
							<line class="st1" x1="782.8" y1="282.1" x2="788" y2="282.1"/>
							<line class="st1" x1="782.8" y1="291.3" x2="788" y2="291.3"/>
							<polygon class="st0" points="785.4,200.2 782.8,228.2 788,228.2 							"/>
						</g>
						<g>
							<rect x="750.8" y="236.7" class="st0" width="32.1" height="68.8"/>
							<line class="st1" x1="750.8" y1="288.9" x2="782.9" y2="288.9"/>
							<line class="st1" x1="750.8" y1="254.7" x2="782.9" y2="254.7"/>
							<g>
								<path class="st1" d="M759.5,245.7c0,1.6-1.3,2.8-2.8,2.8h-0.2c-1.6,0-2.8-1.3-2.8-2.8v-1.9c0-1.6,1.3-2.8,2.8-2.8h0.2
									c1.6,0,2.8,1.3,2.8,2.8V245.7z"/>
								<path class="st1" d="M769.8,245.7c0,1.6-1.3,2.8-2.8,2.8h-0.2c-1.6,0-2.8-1.3-2.8-2.8v-1.9c0-1.6,1.3-2.8,2.8-2.8h0.2
									c1.6,0,2.8,1.3,2.8,2.8V245.7z"/>
								<path class="st1" d="M780.1,245.7c0,1.6-1.3,2.8-2.8,2.8h-0.2c-1.6,0-2.8-1.3-2.8-2.8v-1.9c0-1.6,1.3-2.8,2.8-2.8h0.2
									c1.6,0,2.8,1.3,2.8,2.8V245.7z"/>
							</g>
							<circle class="st1" cx="766.8" cy="265.5" r="3.3"/>
							<g>
								<path class="st1" d="M766,282.3c0,1.4-1.2,2.6-2.6,2.6l0,0c-1.4,0-2.6-1.2-2.6-2.6v-7.9c0-1.4,1.2-2.6,2.6-2.6l0,0
									c1.4,0,2.6,1.2,2.6,2.6V282.3z"/>
								<path class="st1" d="M772.8,282.3c0,1.4-1.2,2.6-2.6,2.6l0,0c-1.4,0-2.6-1.2-2.6-2.6v-7.9c0-1.4,1.2-2.6,2.6-2.6l0,0
									c1.4,0,2.6,1.2,2.6,2.6V282.3z"/>
							</g>
							<path class="st1" d="M759,305.5c0-4.3,3.5-11.9,7.9-11.9c4.3,0,7.9,7.6,7.9,11.9H759z"/>
							<polygon class="st0" points="766.8,167.5 750.8,236.7 782.9,236.7 							"/>
							<line class="st1" x1="766.8" y1="167.5" x2="766.8" y2="151.3"/>
						</g>
					</g>
					<g>
						<g>
							<polygon class="st0" points="798.4,253.1 787.9,253.1 787.9,224 793.2,218.4 793.2,207.6 798.4,207.6 							"/>
							<line class="st1" x1="787.9" y1="235" x2="798.4" y2="235"/>
							<polygon class="st0" points="795.8,179.6 793.2,207.6 798.4,207.6 							"/>
						</g>
						<g>
							<polygon class="st0" points="827.2,253.1 837.7,253.1 837.7,224 832.4,218.4 832.4,207.6 827.2,207.6 							"/>
							<line class="st1" x1="837.7" y1="235" x2="827.2" y2="235"/>
							<polygon class="st0" points="829.8,179.6 832.4,207.6 827.2,207.6 							"/>
						</g>
					</g>
					<polygon class="st0" points="827.2,253.1 812.8,239.6 798.4,253.1 798.4,215.6 827.2,215.6 					"/>
					<polygon class="st0" points="812.8,146.7 798.4,215.6 827.2,215.6 					"/>
					<line class="st1" x1="812.8" y1="146.7" x2="812.8" y2="130.6"/>
					<g>
						<path class="st4" d="M809.3,258.9c0,0.4-0.3,0.7-0.7,0.7l0,0c-0.4,0-0.7-0.3-0.7-0.7v-8.3c0-0.4,0.3-0.7,0.7-0.7l0,0
							c0.4,0,0.7,0.3,0.7,0.7V258.9z"/>
						<path class="st4" d="M813.4,258.9c0,0.4-0.3,0.7-0.7,0.7l0,0c-0.4,0-0.7-0.3-0.7-0.7v-8.3c0-0.4,0.3-0.7,0.7-0.7l0,0
							c0.4,0,0.7,0.3,0.7,0.7V258.9z"/>
						<path class="st4" d="M817.6,258.9c0,0.4-0.3,0.7-0.7,0.7l0,0c-0.4,0-0.7-0.3-0.7-0.7v-8.3c0-0.4,0.3-0.7,0.7-0.7l0,0
							c0.4,0,0.7,0.3,0.7,0.7V258.9z"/>
					</g>
					<g>
						<path class="st1" d="M792.3,282c0-2.7,2.2-7.4,4.9-7.4c2.7,0,4.9,4.7,4.9,7.4v20.7h-9.7V282z"/>
						<path class="st1" d="M823.5,282c0-2.7,2.2-7.4,4.9-7.4c2.7,0,4.9,4.7,4.9,7.4v20.7h-9.7V282z"/>
						<path class="st1" d="M806.3,275.3c0-3.6,2.9-9.9,6.5-9.9c3.6,0,6.5,6.3,6.5,9.9V303h-13V275.3z"/>
					</g>
					<g>
						<path class="st1" d="M804.2,230.3c-1.5,0-2.7,2.6-2.7,4.1v11.4h4.7l0.6-0.6v-10.8C806.9,232.9,805.7,230.3,804.2,230.3z"/>
						<path class="st1" d="M824,234.4c0-1.5-1.2-4.1-2.7-4.1c-1.5,0-2.7,2.6-2.7,4.1v10.8l0.6,0.6h4.7V234.4z"/>
						<path class="st1" d="M812.8,225.2c-2,0-3.6,3.5-3.6,5.4v12.3l3.6-3.4l3.6,3.4v-12.4C816.4,228.6,814.8,225.2,812.8,225.2z"/>
					</g>
					<path class="st1" d="M812.8,193.5c-2,0-3.6,3.5-3.6,5.5v12.4h7.2V199C816.4,197,814.8,193.5,812.8,193.5z"/>
					<line class="st1" x1="788.1" y1="259.6" x2="837.4" y2="259.6"/>
					<line class="st0" x1="788.1" y1="305.5" x2="837.4" y2="305.5"/>
					<g>
						<g>
							<rect x="837.7" y="228.2" class="st0" width="5.2" height="77.3"/>
							<line class="st1" x1="837.7" y1="236.7" x2="842.9" y2="236.7"/>
							<line class="st1" x1="837.7" y1="245.9" x2="842.9" y2="245.9"/>
							<line class="st1" x1="837.7" y1="282.1" x2="842.9" y2="282.1"/>
							<line class="st1" x1="837.7" y1="291.3" x2="842.9" y2="291.3"/>
							<polygon class="st0" points="840.3,200.2 837.7,228.2 842.9,228.2 							"/>
						</g>
						<g>
							<rect x="874.9" y="228.2" class="st0" width="5.2" height="77.3"/>
							<line class="st1" x1="874.9" y1="236.7" x2="880.1" y2="236.7"/>
							<line class="st1" x1="874.9" y1="245.9" x2="880.1" y2="245.9"/>
							<line class="st1" x1="874.9" y1="282.1" x2="880.1" y2="282.1"/>
							<line class="st1" x1="874.9" y1="291.3" x2="880.1" y2="291.3"/>
							<polygon class="st0" points="877.5,200.2 874.9,228.2 880.1,228.2 							"/>
						</g>
						<g>
							<rect x="842.9" y="236.7" class="st0" width="32.1" height="68.8"/>
							<line class="st1" x1="842.9" y1="288.9" x2="874.9" y2="288.9"/>
							<line class="st1" x1="842.9" y1="254.7" x2="874.9" y2="254.7"/>
							<g>
								<path class="st1" d="M851.5,245.7c0,1.6-1.3,2.8-2.8,2.8h-0.2c-1.6,0-2.8-1.3-2.8-2.8v-1.9c0-1.6,1.3-2.8,2.8-2.8h0.2
									c1.6,0,2.8,1.3,2.8,2.8V245.7z"/>
								<path class="st1" d="M861.8,245.7c0,1.6-1.3,2.8-2.8,2.8h-0.2c-1.6,0-2.8-1.3-2.8-2.8v-1.9c0-1.6,1.3-2.8,2.8-2.8h0.2
									c1.6,0,2.8,1.3,2.8,2.8V245.7z"/>
								<path class="st1" d="M872.1,245.7c0,1.6-1.3,2.8-2.8,2.8h-0.2c-1.6,0-2.8-1.3-2.8-2.8v-1.9c0-1.6,1.3-2.8,2.8-2.8h0.2
									c1.6,0,2.8,1.3,2.8,2.8V245.7z"/>
							</g>
							<circle class="st1" cx="858.9" cy="265.5" r="3.3"/>
							<g>
								<path class="st1" d="M858.1,282.3c0,1.4-1.2,2.6-2.6,2.6l0,0c-1.4,0-2.6-1.2-2.6-2.6v-7.9c0-1.4,1.2-2.6,2.6-2.6l0,0
									c1.4,0,2.6,1.2,2.6,2.6V282.3z"/>
								<path class="st1" d="M864.9,282.3c0,1.4-1.2,2.6-2.6,2.6l0,0c-1.4,0-2.6-1.2-2.6-2.6v-7.9c0-1.4,1.2-2.6,2.6-2.6l0,0
									c1.4,0,2.6,1.2,2.6,2.6V282.3z"/>
							</g>
							<path class="st1" d="M851,305.5c0-4.3,3.5-11.9,7.9-11.9c4.3,0,7.9,7.6,7.9,11.9H851z"/>
							<polygon class="st0" points="858.9,167.5 842.9,236.7 874.9,236.7 							"/>
							<line class="st1" x1="858.9" y1="167.5" x2="858.9" y2="151.3"/>
						</g>
					</g>
				</g>
			</g>
			<g>
				<g>
					<polygon class="st0" points="166.9,228.9 100.4,305.5 234.1,305.5 					"/>
					<polygon class="st0" points="216,237.7 157.2,305.5 275.6,305.5 					"/>
					<g>
						<path class="st1" d="M231.5,273.1c0,0.8-0.7,1.5-1.5,1.5h-3.2c-0.8,0-1.5-0.7-1.5-1.5l0,0c0-0.8,0.7-1.5,1.5-1.5h3.2
							C230.8,271.6,231.5,272.3,231.5,273.1L231.5,273.1z"/>
						<path class="st1" d="M194,279c0,0.8-0.7,1.5-1.5,1.5h-3.2c-0.8,0-1.5-0.7-1.5-1.5l0,0c0-0.8,0.7-1.5,1.5-1.5h3.2
							C193.3,277.4,194,278.1,194,279L194,279z"/>
						<path class="st1" d="M209.6,301.3c0,0.8-0.7,1.5-1.5,1.5h-3.2c-0.8,0-1.5-0.7-1.5-1.5l0,0c0-0.8,0.7-1.5,1.5-1.5h3.2
							C208.9,299.8,209.6,300.5,209.6,301.3L209.6,301.3z"/>
						<path class="st1" d="M271,301.3c0,0.8-0.7,1.5-1.5,1.5h-3.2c-0.8,0-1.5-0.7-1.5-1.5l0,0c0-0.8,0.7-1.5,1.5-1.5h3.2
							C270.3,299.8,271,300.5,271,301.3L271,301.3z"/>
						<path class="st1" d="M196.1,275.9c0,0.8-0.7,1.5-1.5,1.5h-3.2c-0.8,0-1.5-0.7-1.5-1.5l0,0c0-0.8,0.7-1.5,1.5-1.5h3.2
							C195.4,274.4,196.1,275.1,196.1,275.9L196.1,275.9z"/>
					</g>
					<g>
						<polygon class="st0" points="100.7,194.9 4.8,305.5 197.9,305.5 						"/>
						<g>
							<path class="st1" d="M99.7,212.9c0,0.8-0.7,1.5-1.5,1.5h-3.2c-0.8,0-1.5-0.7-1.5-1.5l0,0c0-0.8,0.7-1.5,1.5-1.5h3.2
								C99,211.4,99.7,212.1,99.7,212.9L99.7,212.9z"/>
							<path class="st1" d="M41.8,281.7c0,0.8-0.7,1.5-1.5,1.5H37c-0.8,0-1.5-0.7-1.5-1.5l0,0c0-0.8,0.7-1.5,1.5-1.5h3.2
								C41.1,280.2,41.8,280.9,41.8,281.7L41.8,281.7z"/>
							<path class="st1" d="M43.9,278.7c0,0.8-0.7,1.5-1.5,1.5h-3.2c-0.8,0-1.5-0.7-1.5-1.5l0,0c0-0.8,0.7-1.5,1.5-1.5h3.2
								C43.2,277.2,43.9,277.8,43.9,278.7L43.9,278.7z"/>
							<path class="st1" d="M146.9,266.7c0,0.8-0.7,1.5-1.5,1.5h-3.2c-0.8,0-1.5-0.7-1.5-1.5l0,0c0-0.8,0.7-1.5,1.5-1.5h3.2
								C146.2,265.2,146.9,265.9,146.9,266.7L146.9,266.7z"/>
							<path class="st1" d="M93.5,218.9c0,0.8-0.7,1.5-1.5,1.5h-3.2c-0.8,0-1.5-0.7-1.5-1.5l0,0c0-0.8,0.7-1.5,1.5-1.5H92
								C92.9,217.4,93.5,218.1,93.5,218.9L93.5,218.9z"/>
							<path class="st1" d="M109,230.4c0,0.8-0.7,1.5-1.5,1.5h-3.2c-0.8,0-1.5-0.7-1.5-1.5l0,0c0-0.8,0.7-1.5,1.5-1.5h3.2
								C108.4,228.9,109,229.6,109,230.4L109,230.4z"/>
							<path class="st1" d="M128.1,251.5c0,0.8-0.7,1.5-1.5,1.5h-3.2c-0.8,0-1.5-0.7-1.5-1.5l0,0c0-0.8,0.7-1.5,1.5-1.5h3.2
								C127.4,250,128.1,250.7,128.1,251.5L128.1,251.5z"/>
							<path class="st1" d="M128.6,245.2c0,0.8-0.7,1.5-1.5,1.5h-3.2c-0.8,0-1.5-0.7-1.5-1.5l0,0c0-0.8,0.7-1.5,1.5-1.5h3.2
								C127.9,243.7,128.6,244.4,128.6,245.2L128.6,245.2z"/>
							<path class="st1" d="M130.5,248.5c0,0.8-0.7,1.5-1.5,1.5h-3.2c-0.8,0-1.5-0.7-1.5-1.5l0,0c0-0.8,0.7-1.5,1.5-1.5h3.2
								C129.8,246.9,130.5,247.6,130.5,248.5L130.5,248.5z"/>
							<path class="st1" d="M149,263.7c0,0.8-0.7,1.5-1.5,1.5h-3.2c-0.8,0-1.5-0.7-1.5-1.5l0,0c0-0.8,0.7-1.5,1.5-1.5h3.2
								C148.3,262.2,149,262.8,149,263.7L149,263.7z"/>
						</g>
						<g>
							<g>
								<polygon class="st1" points="108.3,264.1 108.3,273.3 95.4,273.3 95.4,264.1 74.3,264.1 74.3,305.5 129.4,305.5 
									129.4,264.1 								"/>
							</g>
							<rect x="87.3" y="281" class="st2" width="29.1" height="24.4"/>
							<g>
								<path class="st1" d="M78.1,305.5v-22.1c0-1.8,1.4-3.2,3.2-3.2l0,0c1.8,0,3.2,1.4,3.2,3.2v22.1H78.1z"/>
								<path class="st1" d="M119.1,305.5v-22.1c0-1.8,1.4-3.2,3.2-3.2l0,0c1.8,0,3.2,1.4,3.2,3.2v22.1H119.1z"/>
							</g>
							<rect x="72.2" y="259" class="st1" width="24.6" height="5.1"/>
							<rect x="105.9" y="259" class="st1" width="24.6" height="5.1"/>
						</g>
					</g>
				</g>
				<g>
					<path class="st0" d="M294.3,261.1c2.3,2.3,2.3,6.1,0,8.4l-16.4,16.4c-2.3,2.3-6.1,2.3-8.4,0l-16.4-16.4c-2.3-2.3-2.3-6.1,0-8.4
						l16.4-16.4h8.4L294.3,261.1z"/>
					<path class="st0" d="M253.3,294.4V292c0-8.9,7.2-16.2,16.2-16.2h9.5c8.9,0,16.2,7.2,16.2,16.2v2.4v11.1h-41.9V294.4z"/>
					<g>
						<path class="st0" d="M251.9,305.5v-8.6c0-1.5,1.2-2.8,2.8-2.8l0,0c1.5,0,2.8,1.3,2.8,2.8v8.6H251.9z"/>
						<path class="st0" d="M257.5,305.5v-8.6c0-1.5,1.3-2.8,2.8-2.8l0,0c1.5,0,2.8,1.3,2.8,2.8v8.6H257.5z"/>
						<path class="st0" d="M263.1,305.5v-8.6c0-1.5,1.3-2.8,2.8-2.8l0,0c1.5,0,2.8,1.3,2.8,2.8v8.6H263.1z"/>
						<path class="st0" d="M268.7,305.5v-8.6c0-1.5,1.3-2.8,2.8-2.8l0,0c1.5,0,2.8,1.3,2.8,2.8v8.6H268.7z"/>
						<path class="st0" d="M274.3,305.5v-8.6c0-1.5,1.3-2.8,2.8-2.8l0,0c1.5,0,2.8,1.3,2.8,2.8v8.6H274.3z"/>
						<path class="st0" d="M279.9,305.5v-8.6c0-1.5,1.3-2.8,2.8-2.8l0,0c1.5,0,2.8,1.3,2.8,2.8v8.6H279.9z"/>
						<path class="st0" d="M285.4,305.5v-8.6c0-1.5,1.2-2.8,2.8-2.8l0,0c1.5,0,2.8,1.3,2.8,2.8v8.6H285.4z"/>
						<path class="st0" d="M291,305.5v-8.6c0-1.5,1.2-2.8,2.8-2.8l0,0c1.5,0,2.8,1.3,2.8,2.8v8.6H291z"/>
					</g>
					<rect x="269.1" y="269.1" class="st0" width="10.2" height="8.5"/>
					<path class="st0" d="M284,253.5v9.3c0,5.4-4.4,9.8-9.8,9.8l0,0c-5.4,0-9.8-4.4-9.8-9.8v-9.3H284z"/>
					<path class="st0" d="M264.6,253.5L264.6,253.5c0-2.5,1.9-4.5,4.2-4.5h10.9c2.3,0,4.2,2,4.2,4.5l0,0H264.6z"/>
				</g>
			</g>
			<line class="st1" x1="3.2" y1="305.5" x2="1321.1" y2="305.5"/>
		</g>
	</g>
</g>
</svg>
